HIERARCHY
ROOT root
{
	OFFSET	0	13.1	24.9
	CHANNELS 6  Xposition Yposition Zposition Xrotation Yrotation Zrotation
	JOINT spine_1
	{
		OFFSET	0	9.99999	0
		CHANNELS 3  Xrotation Yrotation Zrotation
		JOINT spine_2
		{
			OFFSET	0	112	-10
			CHANNELS 3  Xrotation Yrotation Zrotation
			JOINT spine_3
			{
				OFFSET	0	206.5	19.3
				CHANNELS 3  Xrotation Yrotation Zrotation
				JOINT spine_4
				{
					OFFSET	0	110.4	14.6
					CHANNELS 3  Xrotation Yrotation Zrotation
					JOINT neck_1
					{
						OFFSET	0	71.8	-50.3
						CHANNELS 3  Xrotation Yrotation Zrotation
						JOINT neck_2
						{
							OFFSET	0	86.2	-25.8
							CHANNELS 3  Xrotation Yrotation Zrotation
							JOINT head_ee
							{
								OFFSET	0	179.8	-8.7
								CHANNELS 3  Xrotation Yrotation Zrotation
								End Site
								{
									OFFSET	1	0	0
								}
							}
						}
					}
					JOINT left_clavicle
					{
						OFFSET	-43.2	22.4	-70.8
						CHANNELS 3  Xrotation Yrotation Zrotation
						JOINT left_shoulder
						{
							OFFSET	-93.9	-5.79999	48.7
							CHANNELS 3  Xrotation Yrotation Zrotation
							JOINT left_elbow
							{
								OFFSET	-291.4	-30.8	15.2
								CHANNELS 3  Xrotation Yrotation Zrotation
								JOINT left_lowarm_twist
								{
									OFFSET	-110.7	-3.89999	13.6
									CHANNELS 3  Xrotation Yrotation Zrotation
									JOINT left_hand
									{
										OFFSET	-110.7	-3.89999	13.6
										CHANNELS 3  Xrotation Yrotation Zrotation
										JOINT left_ee
										{
											OFFSET	-80.8	-5.10001	12.1
											CHANNELS 3  Xrotation Yrotation Zrotation
											End Site
											{
												OFFSET	1	0	0
											}
										}
									}
								}
							}
						}
					}
					JOINT right_clavicle
					{
						OFFSET	43.2	22.4	-70.8
						CHANNELS 3  Xrotation Yrotation Zrotation
						JOINT right_shoulder
						{
							OFFSET	93.9	-5.79999	48.7
							CHANNELS 3  Xrotation Yrotation Zrotation
							JOINT right_elbow
							{
								OFFSET	291.4	-30.8	15.2
								CHANNELS 3  Xrotation Yrotation Zrotation
								JOINT right_lowarm_twist
								{
									OFFSET	110.7	-3.89999	13.6
									CHANNELS 3  Xrotation Yrotation Zrotation
									JOINT right_hand
									{
										OFFSET	110.7	-3.89999	13.6
										CHANNELS 3  Xrotation Yrotation Zrotation
										JOINT right_ee
										{
											OFFSET	80.8	-5.10001	12.1
											CHANNELS 3  Xrotation Yrotation Zrotation
											End Site
											{
												OFFSET	1	0	0
											}
										}
									}
								}
							}
						}
					}
				}
			}
		}
	}
	JOINT left_hip
	{
		OFFSET	-82.8	-127.5	0.300001
		CHANNELS 3  Xrotation Yrotation Zrotation
		JOINT left_knee
		{
			OFFSET	-28.2	-396.7	2.2
			CHANNELS 3  Xrotation Yrotation Zrotation
			JOINT left_ankle
			{
				OFFSET	-11.7	-411.3	35.4
				CHANNELS 3  Xrotation Yrotation Zrotation
				JOINT left_toes
				{
					OFFSET	0	-60	-88.6
					CHANNELS 3  Xrotation Yrotation Zrotation
					JOINT left_foot_ee
					{
						OFFSET	-22.5	-16.5	-42.2
						CHANNELS 3  Xrotation Yrotation Zrotation
						End Site
						{
							OFFSET	1	0	0
						}
					}
				}
			}
		}
	}
	JOINT right_hip
	{
		OFFSET	82.8	-127.5	0.300001
		CHANNELS 3  Xrotation Yrotation Zrotation
		JOINT right_knee
		{
			OFFSET	28.2	-396.7	2.2
			CHANNELS 3  Xrotation Yrotation Zrotation
			JOINT right_ankle
			{
				OFFSET	11.7	-411.3	35.4
				CHANNELS 3  Xrotation Yrotation Zrotation
				JOINT right_toes
				{
					OFFSET	0	-60	-88.6
					CHANNELS 3  Xrotation Yrotation Zrotation
					JOINT right_foot_ee
					{
						OFFSET	22.5	-16.5	-42.2
						CHANNELS 3  Xrotation Yrotation Zrotation
						End Site
						{
							OFFSET	1	0	0
						}
					}
				}
			}
		}
	}
}
MOTION
Frames: 10
Frame Time: 0.02
805.211485928 641.219 -1822.34321625 17.8332361329 28.3680253688 -2.78003297581 -4.40142 -0.0891685 -2.10884 -4.39895 0.0451727 -2.11024 -4.397 0.643968 -2.01013 -4.4025 0.318497 -2.08657 -11.1617 13.5131 13.3532 -10.7864 16.7951 16.3951 -0.0 0.0 -0.0 5.86853 1.67437 11.3858 -8.37108 -12.586 53.5261 1.77832 -41.3739 0.671553 -17.106 -0.905994 1.98271 -0.503603 4.62132 -1.37761 -0.0 0.0 -0.0 10.1163 13.3414 -20.014 -24.6263 23.6672 -55.7244 0.524682 14.5697 -0.0670726 -25.8948 1.59067 -2.87507 -6.32357 -0.958363 46.986 0.0 0.0 0.0 -5.40869 -37.0505 -5.82116 -29.2476 0.0721472 4.43939 13.4728 27.31 -2.00772 20.7003 -0.0 -0.0 -0.0 0.0 -0.0 0.428477 32.3627 -11.731 -37.556 0.318645 -5.65308 38.2708 -10.9539 4.72874 -0.307556 0.0 0.0 0.0 0.0 0.0 
797.627296747 642.712 -1826.90844559 16.9892180241 28.7846506184 -2.51303936294 -4.35127 -0.1823 -2.21761 -4.34853 -0.040854 -2.22471 -4.34275 0.592028 -2.14492 -4.34908 0.245935 -2.21146 -9.43371 13.3426 12.7857 -9.05756 16.3183 15.6054 -0.0 0.0 -0.0 6.1723 1.72364 11.9745 -7.33686 -12.6315 52.8767 1.81806 -42.0027 0.697988 -17.7804 -0.953577 2.05476 -0.68418 3.83774 -2.90569 -0.0 0.0 -0.0 9.72935 12.7091 -19.1795 -24.9572 23.4232 -55.5015 0.592842 16.3664 -0.0852532 -25.8342 1.58548 -2.86929 -6.26544 -2.45869 45.278 0.0 0.0 0.0 -4.89859 -36.4326 -4.78027 -29.3762 0.0674545 4.45856 13.4728 28.8866 -2.02838 18.3609 -0.0 -0.0 -0.0 0.0 -0.0 3.66818 34.658 -13.905 -39.1449 0.413265 -5.87822 35.8834 -14.6735 4.54147 -0.462598 0.0 0.0 0.0 0.0 0.0 
791.179412052 641.476 -1831.74461683 17.8354970283 29.5813203847 -3.11948737763 -4.53403 -0.165581 -2.15909 -4.53144 -0.0278901 -2.16525 -4.52632 0.594258 -2.08233 -4.53228 0.258016 -2.15001 -8.80819 13.3406 12.6774 -8.42662 16.196 15.4331 -0.0 0.0 -0.0 6.26756 1.89959 12.1602 -5.28456 -12.4702 51.1634 1.83439 -42.2574 0.70894 -18.5604 -1.00968 2.1374 -0.996654 1.63217 -5.94865 -0.0 0.0 -0.0 10.3322 13.76 -20.4794 -25.8666 22.8253 -55.2931 0.5219 14.4957 -0.0663746 -25.121 1.52496 -2.8008 -6.22049 -2.82329 44.5721 0.0 0.0 0.0 -6.39501 -37.9003 -4.51474 -30.2143 0.035798 4.58329 13.4307 27.3699 -2.00248 19.3153 -0.0 -0.0 -0.0 0.0 -0.0 6.12573 33.6265 -17.7286 -30.432 -0.0272761 -4.61562 32.7423 -16.3717 4.2452 -3.30276 0.0 0.0 0.0 0.0 0.0 
790.143266765 642.381 -1833.68991164 16.9965562609 30.0880083716 -2.00176086151 -4.6705 -0.206816 -2.28418 -4.6676 -0.0610875 -2.29271 -4.66042 0.604203 -2.21254 -4.66717 0.247286 -2.28016 -7.5114 12.6632 12.9958 -7.07945 14.285 15.4849 -0.0 0.0 -0.0 6.45221 3.45358 12.5159 -2.45156 -11.2916 49.7779 2.0713 -45.7314 0.873568 -19.6015 -1.0863 2.24651 -1.58664 0.389264 -10.4797 -0.0 0.0 -0.0 10.5117 14.156 -20.8656 -25.4923 22.9849 -55.2056 0.568238 15.7215 -0.0784534 -24.3685 1.46202 -2.72773 -6.18784 -4.33437 43.112 0.0 0.0 0.0 -6.89366 -38.4531 -5.99465 -29.0386 0.0796866 4.4082 13.7714 28.824 -2.07037 17.8979 -0.0 -0.0 -0.0 0.0 -0.0 7.97709 33.5611 -18.3493 -23.946 -0.227961 -3.64097 30.1405 -19.2519 4.0072 -4.43568 0.0 0.0 0.0 0.0 0.0 
782.36542268 646.066 -1833.51875669 16.1610658016 30.5581303048 -1.10743413206 -4.63995 -0.218333 -2.40526 -4.63673 -0.0648827 -2.41427 -4.62878 0.634452 -2.33037 -4.63626 0.258564 -2.40127 -6.13509 10.2519 10.9638 -5.81832 10.8854 12.9333 -0.0 0.0 -0.0 6.92475 4.55332 13.4046 -0.429559 -7.93868 50.2781 2.44648 -50.4647 1.15305 -19.4082 -1.07192 2.22636 -2.10592 -1.07242 -14.7168 -0.0 0.0 -0.0 10.5507 14.8033 -20.9288 -26.5524 23.8199 -54.5347 0.539137 14.9533 -0.0707556 -23.972 1.42924 -2.6889 -6.30933 -6.26733 42.7082 0.0 0.0 0.0 -7.30751 -38.8438 -7.25103 -27.6039 0.128357 4.1934 14.6616 28.379 -2.19093 16.1382 -0.0 -0.0 -0.0 0.0 -0.0 3.92562 33.1143 -15.2004 -10.8097 -0.291963 -1.63079 29.7143 -23.9705 4.05024 -5.87752 0.0 0.0 0.0 0.0 0.0 
767.881031235 646.927 -1841.87725368 16.0593222664 30.2567958648 -0.993468147226 -4.96561 -0.340861 -2.1177 -4.96314 -0.205446 -2.13509 -4.95085 0.430979 -2.10122 -4.957 0.0938013 -2.14289 -6.9152 10.9934 11.6088 -6.56519 11.9997 13.7523 -0.0 0.0 -0.0 7.01606 8.13107 13.4813 2.56084 -7.99449 50.643 2.92995 -55.4229 1.53925 -19.4172 -1.07259 2.22729 -2.4227 -1.77589 -17.2601 -0.0 0.0 -0.0 10.9752 12.7685 -21.9428 -25.196 25.0718 -52.4945 0.541958 15.028 -0.0714855 -23.141 1.36144 -2.60679 -6.29692 -8.69654 40.6363 0.0 0.0 0.0 -7.55757 -33.4993 -7.58732 -25.0937 0.200513 3.81495 17.8559 27.628 -2.62433 15.5604 -0.0 -0.0 -0.0 0.0 -0.0 5.52206 33.9004 -15.5209 -3.98966 -0.143583 -0.595332 22.5362 -27.6729 3.25071 -9.0929 0.0 0.0 0.0 0.0 0.0 
760.370016673 643.23 -1845.52388399 16.3622547751 30.3325588633 -1.59556901811 -5.21417 -0.402689 -1.90655 -5.21219 -0.280577 -1.9283 -5.19865 0.306657 -1.92433 -5.20382 -0.0010428 -1.9486 -4.12665 10.5523 10.9219 -3.80321 10.939 12.8662 -0.0 0.0 -0.0 7.17084 6.11989 13.8323 3.44483 -7.18547 50.3026 2.87221 -54.8886 1.49186 -21.1232 -1.20185 2.40346 -2.59734 -3.33753 -19.2413 -0.0 0.0 -0.0 10.7172 15.6103 -21.2686 -24.842 25.3567 -53.7581 0.597756 16.4947 -0.0866432 -22.9043 1.34236 -2.58324 -6.24407 -9.46312 39.556 0.0 0.0 0.0 -8.51916 -37.6214 -6.10827 -23.9207 0.228526 3.63713 18.817 27.9463 -2.76102 15.3285 -0.0 -0.0 -0.0 0.0 -0.0 3.62521 35.6813 -13.3891 0.755712 0.0318559 0.111592 22.1085 -28.0882 3.2037 -7.77939 0.0 0.0 0.0 0.0 0.0 
760.498957788 643.23 -1845.7458491 16.3548019094 30.2891270975 -1.58080183388 -5.21417 -0.402689 -1.90655 -5.21219 -0.280577 -1.9283 -5.19865 0.306657 -1.92433 -5.20382 -0.0010428 -1.9486 -4.12665 10.5523 10.9219 -3.80321 10.939 12.8662 -0.0 0.0 -0.0 7.17084 6.11989 13.8323 3.44483 -7.18547 50.3026 2.87221 -54.8886 1.49186 -21.1232 -1.20185 2.40346 -2.59734 -3.33753 -19.2413 -0.0 0.0 -0.0 10.7172 15.6103 -21.2686 -24.842 25.3567 -53.7581 0.597756 16.4947 -0.0866432 -22.9043 1.34236 -2.58324 -6.24407 -9.46312 39.556 0.0 0.0 0.0 -8.51916 -37.6214 -6.10827 -23.9207 0.228526 3.63713 18.817 27.9463 -2.76102 15.3285 -0.0 -0.0 -0.0 0.0 -0.0 3.62521 35.6813 -13.3891 0.755712 0.0318559 0.111592 22.1085 -28.0882 3.2037 -7.77939 0.0 0.0 0.0 0.0 0.0 
712.074518764 644.074 -1892.73444627 11.9672246345 32.6823699076 2.38889735208 -4.26451 -0.355707 -1.26808 -4.26366 -0.274302 -1.28814 -4.25581 0.100282 -1.31319 -4.2582 -0.108353 -1.31255 -2.18915 -1.05309 -0.771356 -2.18719 -1.29408 -0.950673 -0.0 0.0 -0.0 8.33219 4.82458 16.0898 0.452296 -4.23546 52.9919 2.46523 -50.6792 1.16753 -20.7965 -1.17669 2.37002 -1.55171 -8.77614 -14.3507 -0.0 0.0 -0.0 10.8594 12.8194 -21.6827 -26.7589 35.97 -47.8283 0.950035 25.2022 -0.212382 -24.443 1.46821 -2.735 -6.15478 -15.1679 34.1546 0.0 0.0 0.0 -5.76214 -30.3695 -7.55687 -21.2435 0.278787 3.22941 34.6651 27.8308 -4.71325 16.5862 -0.0 -0.0 -0.0 0.0 -0.0 4.7902 35.8085 -15.3913 1.14396 0.0487942 0.16876 9.615 -21.7016 1.40905 -6.22272 0.0 0.0 0.0 0.0 0.0 
713.298072752 644.074 -1894.63819959 11.9234358488 32.3577264656 2.4703501752 -4.26451 -0.355707 -1.26808 -4.26366 -0.274302 -1.28814 -4.25581 0.100282 -1.31319 -4.2582 -0.108353 -1.31255 -2.18915 -1.05309 -0.771356 -2.18719 -1.29408 -0.950673 -0.0 0.0 -0.0 8.33219 4.82458 16.0898 0.452296 -4.23546 52.9919 2.46523 -50.6792 1.16753 -20.7965 -1.17669 2.37002 -1.55171 -8.77614 -14.3507 -0.0 0.0 -0.0 10.8594 12.8194 -21.6827 -26.7589 35.97 -47.8283 0.950035 25.2022 -0.212382 -24.443 1.46821 -2.735 -6.15478 -15.1679 34.1546 0.0 0.0 0.0 -5.76214 -30.3695 -7.55687 -21.2435 0.278787 3.22941 34.6651 27.8308 -4.71325 16.5862 -0.0 -0.0 -0.0 0.0 -0.0 4.7902 35.8085 -15.3913 1.14396 0.0487942 0.16876 9.615 -21.7016 1.40905 -6.22272 0.0 0.0 0.0 0.0 0.0 
